<svg width="25" height="44" xmlns="http://www.w3.org/2000/svg">

 <g>
  <rect id="svg_2" height="46" width="27" y="-1" x="-1" fill="#000000"/>
   <path d="m7.1577,5.27678c-1.7287,1.50887 -1.76867,1.55883 -1.90857,2.08843c-0.06995,0.29978 -0.09992,0.57957 -0.05995,0.61954c0.02998,0.03997 3.07769,0.08993 6.75493,0.09992l6.69498,0.03997l1.0692,-0.98926c0.57957,-0.5396 1.42893,-1.329 1.8686,-1.74869l0.7994,-0.76942l-0.3997,-0.3997l-0.3997,-0.3997l-6.32526,-0.04996l-6.31526,-0.04996l-1.77867,1.55883l0,0l0,0z" stroke-width="0.1" fill="#ffffff" id="a" stroke="null"/>
   <path d="m21.52692,7.55507c-1.23907,1.15913 -1.8686,1.82863 -1.91856,2.01849c-0.1399,0.5296 -1.27904,7.4744 -1.29903,7.94404c-0.02998,0.42968 0.00999,0.50962 0.6695,1.36897c0.38971,0.48963 0.73945,0.89932 0.78941,0.90932c0.08993,0 1.04921,-0.83937 2.27829,-2.01849c0.74944,-0.71946 0.75943,-0.73945 0.82938,-1.329c0.02998,-0.32975 0.35973,-2.32825 0.70947,-4.44667c0.91931,-5.41594 0.87934,-5.08619 0.6695,-5.336c-0.35973,-0.42968 -0.76942,-0.85935 -0.81938,-0.84936c-0.03997,0 -0.88933,0.77942 -1.90857,1.7387l0,0l-0.00001,0z" stroke-width="0.1" fill="#ffffff" id="b" stroke="null"/>
   <path d="m18.37929,23.40319c-0.65951,0.60954 -1.22908,1.17912 -1.26905,1.26905c-0.07994,0.17987 -0.5296,2.77792 -0.67949,3.91706c-0.04996,0.35973 -0.22983,1.44891 -0.3997,2.43817c-0.16987,0.97927 -0.29978,1.85861 -0.27979,1.95853c0.02998,0.18986 2.35823,3.09768 2.47814,3.09768c0.03997,0 0.40969,-0.2698 0.81938,-0.58956l0.73945,-0.59955l0.58956,-3.47739c0.32975,-1.90857 0.58956,-3.67724 0.57957,-3.92706c-0.00999,-0.24981 0.06995,-0.99925 0.17987,-1.66875c0.09992,-0.67949 0.18986,-1.329 0.18986,-1.44891c0,-0.25981 -1.43892,-2.07844 -1.62878,-2.07844c-0.06995,0.00999 -0.65951,0.49962 -1.31901,1.10917l0,0l-0.00001,0z" stroke-width="0.1" fill="#ffffff" id="c" stroke="null"/>
   <path d="m0.78247,34.13514c-0.15988,0.46965 -0.20984,0.99925 -0.10992,1.14914c0.06995,0.08993 0.67949,0.80939 1.36897,1.57882l1.24906,1.41894l6.28529,0l6.2753,0l0.63952,-0.50962c0.34974,-0.27979 0.63952,-0.54959 0.63952,-0.58956c0,-0.08993 -0.65951,-0.9293 -1.80864,-2.31826l-0.63952,-0.76942l-6.9348,-0.02998c-4.71646,-0.02998 -6.9348,0 -6.96478,0.06995l0,0l0,0l0,-0.00001z" stroke-width="0.1" fill="#ffffff" id="d" stroke="null"/>
   <path d="m4.26986,22.9835c-0.2698,0.20984 -0.75943,0.63952 -1.09918,0.94929c-0.5396,0.49962 -0.62953,0.62953 -0.68948,1.03922c-0.02998,0.25981 -0.1399,0.91931 -0.23982,1.4689c-0.09992,0.54959 -0.29978,1.75868 -0.44966,2.69798c-0.14989,0.9293 -0.32975,2.02848 -0.40969,2.43817c-0.07994,0.3997 -0.1399,0.76942 -0.1399,0.81938c0,0.10992 4.36672,0.11991 4.42668,0.00999c0.02998,-0.03997 0.25981,-1.329 0.50962,-2.86785c0.58956,-3.51736 0.75943,-4.5366 0.81938,-4.67649c0.01998,-0.06995 -0.34974,-0.59955 -0.81938,-1.1991c-1.00924,-1.25905 -1.12915,-1.29903 -1.90857,-0.67949l0,0l0,0z" stroke-width="0.1" fill="#ffffff" id="e" stroke="null"/>
   <path d="m4.69954,10.59279c-0.08993,0.47964 -0.1399,0.94929 -0.09992,1.03922c0.05995,0.15988 -0.08993,1.24906 -0.45965,3.36748c-0.09992,0.57957 -0.25981,1.50887 -0.34974,2.07844l-0.16987,1.02923l0.3997,0.51961c0.68948,0.87934 0.78941,0.96927 1.1991,0.96927c0.31976,0 0.51961,-0.1299 1.63877,-1.07919c0.69948,-0.58956 1.28903,-1.13915 1.329,-1.22908c0.05995,-0.16987 1.24906,-7.25456 1.24906,-7.4644c0,-0.08993 -0.51961,-0.11991 -2.28829,-0.11991l-2.28829,0l-0.15988,0.88933l0,0l0,0l0.00001,0z" stroke-width="0.1" fill="#ffffff" id="f" stroke="null"/>
   <path d="m7.43749,20.10566l-1.13915,1.10917l0.19985,0.35973c0.09992,0.19985 0.43967,0.6695 0.73945,1.03922l0.54959,0.68948l4.23682,-0.00999l4.22683,0l1.18911,-1.07919c0.64951,-0.58956 1.18911,-1.13915 1.18911,-1.21908c0,-0.08993 -0.33975,-0.56957 -0.74944,-1.07919l-0.75943,-0.91931l-4.27679,0l-4.2668,0l-1.13915,1.10917l0,0l0,-0.00001z" stroke-width="0.1" fill="#ffffff" id="g" stroke="null"/>
  </g>
</svg>
