<svg width="12" height="17" xmlns="http://www.w3.org/2000/svg">
 <g>
  <title>background</title>
  <rect fill="none" id="canvas_background" height="4.124967" width="3.499977" y="-1" x="-1"/>
 </g>

 <g>
  <title>Layer 1</title>
  <rect fill="#000000" x="-1" y="-1" width="18" height="24" id="svg_1"/>
  <g stroke="null" id="svg_2">
   <path stroke="null" id="a" fill="#ffffff" stroke-width="0.1" d="m3.998171,0.71179c-0.78934,0.68895 -0.80758,0.71176 -0.87146,0.95359c-0.03194,0.13687 -0.04562,0.26464 -0.02737,0.28289c0.01369,0.01824 1.40529,0.04106 3.08433,0.04562l3.05696,0.01824l0.4882,-0.4517c0.26464,-0.24639 0.65246,-0.60683 0.85321,-0.79847l0.36501,-0.35133l-0.1825,-0.1825l-0.1825,-0.1825l-2.88814,-0.02281l-2.88358,-0.02281l-0.81215,0.71176l0,0l0,0l-0.00001,0.00001l0,0.00002l0,-0.00001z"/>
   <path stroke="null" id="b" fill="#ffffff" stroke-width="0.1" d="m10.559231,1.75207c-0.56577,0.52926 -0.85321,0.83496 -0.87603,0.92165c-0.06387,0.24181 -0.58401,3.41285 -0.59314,3.62729c-0.01369,0.19619 0.00456,0.2327 0.30569,0.62509c0.17793,0.22357 0.33765,0.41063 0.36045,0.4152c0.04106,0 0.47907,-0.38326 1.04028,-0.92165c0.3422,-0.32851 0.34676,-0.33765 0.3787,-0.60683c0.01369,-0.15056 0.16425,-1.06309 0.32395,-2.03037c0.41976,-2.47295 0.40152,-2.32239 0.30569,-2.43644c-0.16425,-0.19619 -0.35133,-0.39239 -0.37413,-0.38782c-0.01824,0 -0.40607,0.35589 -0.87146,0.7939l0,0l-0.00001,0l0,0.00001l0,-0.00002l0.00001,0l0,-0.00001z"/>
   <path stroke="null" id="c" fill="#ffffff" stroke-width="0.1" d="m9.122001,8.98841c-0.30113,0.27832 -0.56121,0.53839 -0.57945,0.57945c-0.0365,0.08213 -0.24181,1.26841 -0.31026,1.78855c-0.02281,0.16425 -0.10495,0.66158 -0.1825,1.11328c-0.07757,0.44714 -0.13687,0.84865 -0.12775,0.89427c0.01369,0.08669 1.07678,1.41441 1.13153,1.41441c0.01824,0 0.18706,-0.12319 0.37413,-0.26919l0.33765,-0.27376l0.26919,-1.58779c0.15056,-0.87146 0.26919,-1.67905 0.26464,-1.79312c-0.00456,-0.11407 0.03194,-0.45626 0.08213,-0.76196c0.04562,-0.31026 0.08669,-0.60683 0.08669,-0.66158c0,-0.11863 -0.65702,-0.94902 -0.74372,-0.94902c-0.03194,0.00456 -0.30113,0.22813 -0.60227,0.50645l0,0l-0.00001,0l0,-0.00001l0.00002,0l-0.00002,0.00001l0,0.00001z"/>
   <path stroke="null" id="d" fill="#ffffff" stroke-width="0.1" d="m1.087211,13.88866c-0.07301,0.21445 -0.09582,0.45626 -0.05019,0.5247c0.03194,0.04106 0.31026,0.36957 0.62509,0.72089l0.57032,0.64789l2.8699,0l2.86534,0l0.292,-0.2327c0.15969,-0.12775 0.292,-0.25094 0.292,-0.26919c0,-0.04106 -0.30113,-0.42432 -0.82583,-1.05852l-0.292,-0.35133l-3.16647,-0.01369c-2.15356,-0.01369 -3.16647,0 -3.18016,0.03194l0,0l0,0l0,-0.00001l0,0.00001l0.00001,0l-0.00001,0.00001z"/>
   <path stroke="null" id="e" fill="#ffffff" stroke-width="0.1" d="m2.679571,8.79676c-0.12319,0.09582 -0.34676,0.292 -0.5019,0.43345c-0.24639,0.22813 -0.28745,0.28745 -0.31482,0.47451c-0.01369,0.11863 -0.06387,0.41976 -0.1095,0.67071c-0.04562,0.25094 -0.13687,0.80302 -0.20532,1.23191c-0.06844,0.42432 -0.15056,0.92621 -0.18706,1.11328c-0.0365,0.1825 -0.06387,0.35133 -0.06387,0.37413c0,0.05019 1.99387,0.05475 2.02125,0.00456c0.01369,-0.01824 0.11863,-0.60683 0.2327,-1.30947c0.26919,-1.60605 0.34676,-2.07144 0.37413,-2.13531c0.00912,-0.03194 -0.15969,-0.27376 -0.37413,-0.54751c-0.46082,-0.57489 -0.51558,-0.59314 -0.87146,-0.31026l0,0l0,0l-0.00001,0l-0.00001,0z"/>
   <path stroke="null" id="f" fill="#ffffff" stroke-width="0.1" d="m2.875761,3.13911c-0.04106,0.21902 -0.06387,0.43345 -0.04562,0.47451c0.02737,0.07301 -0.04106,0.57032 -0.20989,1.53761c-0.04562,0.26464 -0.11863,0.68895 -0.15969,0.94902l-0.07757,0.46996l0.1825,0.23726c0.31482,0.40152 0.36045,0.44258 0.54751,0.44258c0.146,0 0.23726,-0.0593 0.74828,-0.49276c0.31938,-0.26919 0.58857,-0.52015 0.60683,-0.56121c0.02737,-0.07757 0.57032,-3.31247 0.57032,-3.40829c0,-0.04106 -0.23726,-0.05475 -1.04484,-0.05475l-1.04484,0l-0.07301,0.40607l0,0l0,0l0.00001,0l0,0.00001l-0.00001,-0.00001l0.00001,-0.00001l0.00001,0.00001z"/>
   <path stroke="null" id="g" fill="#ffffff" stroke-width="0.1" d="m4.125921,7.48272l-0.52015,0.50645l0.09126,0.16425c0.04562,0.09126 0.20075,0.30569 0.33765,0.47451l0.25094,0.31482l1.93455,-0.00456l1.93,0l0.54295,-0.49276c0.29657,-0.26919 0.54295,-0.52015 0.54295,-0.55664c0,-0.04106 -0.15514,-0.26007 -0.3422,-0.49276l-0.34676,-0.41976l-1.95281,0l-1.94825,0l-0.52015,0.50645l0,0l0,-0.00001l0,0.00002l0.00002,-0.00001z"/>
  </g>
 </g>
</svg>