<svg width="15" height="21" xmlns="http://www.w3.org/2000/svg">

  <rect id="svg_1" height="24" width="18" y="-1" x="-1" fill="#000000"/>
  <g stroke="null" id="svg_2">
   <path stroke="null" d="m4.4142,0.90043c-0.99853,0.87154 -1.02161,0.9004 -1.10242,1.20631c-0.0404,0.17315 -0.05771,0.33477 -0.03463,0.35786c0.01732,0.02308 1.77773,0.05194 3.90176,0.05771l3.86713,0.02308l0.61759,-0.57141c0.33477,-0.31169 0.82538,-0.76766 1.07933,-1.01008l0.46175,-0.44444l-0.23087,-0.23087l-0.23087,-0.23087l-3.65357,-0.02886l-3.6478,-0.02886l-1.02739,0.9004l0,0l0,0l-0.00001,0.00001l0,0.00002z" stroke-width="0.1" fill="#ffffff" id="a"/>
   <path stroke="null" d="m12.7141,2.21641c-0.71571,0.66953 -1.07933,1.05624 -1.1082,1.16591c-0.0808,0.3059 -0.73879,4.31734 -0.75034,4.58861c-0.01732,0.24819 0.00577,0.29437 0.38671,0.79075c0.22509,0.28282 0.42713,0.51946 0.45598,0.52524c0.05194,0 0.60604,-0.48483 1.31598,-1.16591c0.43289,-0.41557 0.43866,-0.42713 0.47907,-0.76766c0.01732,-0.19046 0.20778,-1.34484 0.4098,-2.56847c0.53101,-3.12834 0.50793,-2.93788 0.38671,-3.08216c-0.20778,-0.24819 -0.44444,-0.49638 -0.47329,-0.4906c-0.02308,0 -0.51369,0.45021 -1.10242,1.0043l0,0l-0.00001,0l0,0.00001l0,-0.00002z" stroke-width="0.1" fill="#ffffff" id="b"/>
   <path stroke="null" d="m10.89597,11.37056c-0.38094,0.35208 -0.70994,0.68108 -0.73302,0.73302c-0.04617,0.1039 -0.3059,1.60457 -0.39249,2.26256c-0.02886,0.20778 -0.13276,0.83691 -0.23087,1.40833c-0.09813,0.56564 -0.17315,1.07357 -0.16161,1.13128c0.01732,0.10967 1.36215,1.78927 1.43142,1.78927c0.02308,0 0.23664,-0.15584 0.47329,-0.34053l0.42713,-0.34631l0.34053,-2.0086c0.19046,-1.10242 0.34053,-2.12404 0.33477,-2.26834c-0.00577,-0.1443 0.0404,-0.57718 0.1039,-0.9639c0.05771,-0.39249 0.10967,-0.76766 0.10967,-0.83691c0,-0.15007 -0.83115,-1.20054 -0.94082,-1.20054c-0.0404,0.00577 -0.38094,0.28859 -0.76189,0.64067l0,0l-0.00001,0l0,-0.00001l0.00002,0z" stroke-width="0.1" fill="#ffffff" id="c"/>
   <path stroke="null" d="m0.73176,17.56951c-0.09236,0.27128 -0.12121,0.57718 -0.06349,0.66376c0.0404,0.05194 0.39249,0.46752 0.79075,0.91195l0.72147,0.8196l3.63049,0l3.62473,0l0.36939,-0.29437c0.20201,-0.16161 0.36939,-0.31745 0.36939,-0.34053c0,-0.05194 -0.38094,-0.53678 -1.0447,-1.33906l-0.36939,-0.44444l-4.00566,-0.01732c-2.72431,-0.01732 -4.00566,0 -4.02298,0.0404l0,0l0,0l0,-0.00001l0,0.00001l0.00001,0z" stroke-width="0.1" fill="#ffffff" id="d"/>
   <path stroke="null" d="m2.74613,11.12813c-0.15584,0.12121 -0.43866,0.36939 -0.63491,0.54832c-0.31169,0.28859 -0.36363,0.36363 -0.39825,0.60027c-0.01732,0.15007 -0.0808,0.53101 -0.13852,0.84846c-0.05771,0.31745 -0.17315,1.01584 -0.25974,1.5584c-0.08658,0.53678 -0.19046,1.17168 -0.23664,1.40833c-0.04617,0.23087 -0.0808,0.44444 -0.0808,0.47329c0,0.06349 2.5223,0.06926 2.55693,0.00577c0.01732,-0.02308 0.15007,-0.76766 0.29437,-1.65651c0.34053,-2.03169 0.43866,-2.62042 0.47329,-2.70122c0.01154,-0.0404 -0.20201,-0.34631 -0.47329,-0.69262c-0.58295,-0.72725 -0.65222,-0.75034 -1.10242,-0.39249l0,0l0,0l-0.00001,0l-0.00001,0z" stroke-width="0.1" fill="#ffffff" id="e"/>
   <path stroke="null" d="m2.99432,3.97105c-0.05194,0.27706 -0.0808,0.54832 -0.05771,0.60027c0.03463,0.09236 -0.05194,0.72147 -0.26551,1.94512c-0.05771,0.33477 -0.15007,0.87154 -0.20201,1.20054l-0.09813,0.59451l0.23087,0.30014c0.39825,0.50793 0.45598,0.55987 0.69262,0.55987c0.1847,0 0.30014,-0.07502 0.94659,-0.62336c0.40402,-0.34053 0.74456,-0.658 0.76766,-0.70994c0.03463,-0.09813 0.72147,-4.19036 0.72147,-4.31157c0,-0.05194 -0.30014,-0.06926 -1.32175,-0.06926l-1.32175,0l-0.09236,0.51369l0,0l0,0l0.00001,0l0,0.00001l-0.00001,-0.00001z" stroke-width="0.1" fill="#ffffff" id="f"/>
   <path stroke="null" d="m4.57581,9.46583l-0.658,0.64067l0.11544,0.20778c0.05771,0.11544 0.25396,0.38671 0.42713,0.60027l0.31745,0.39825l2.44726,-0.00577l2.4415,0l0.68685,-0.62336c0.37517,-0.34053 0.68685,-0.658 0.68685,-0.70416c0,-0.05194 -0.19625,-0.329 -0.43289,-0.62336l-0.43866,-0.53101l-2.47035,0l-2.46458,0l-0.658,0.64067l0,0l0,-0.00001l0,0.00003z" stroke-width="0.1" fill="#ffffff" id="g"/>
  </g>
</svg>
